<svg width="20" height="20" fill="none" xmlns="http://www.w3.org/2000/svg"><path fill-rule="evenodd" clip-rule="evenodd" d="M6.668 3.794a42.147 42.147 0 016.749.033l1.353.116a2.221 2.221 0 012.007 1.876l.085.557c.29 1.89.263 3.815-.08 5.696a1.953 1.953 0 01-1.92 1.603H7.38c-.172 0-.342.043-.493.124l-3.26 1.751a.625.625 0 01-.92-.55V7.902a4.108 4.108 0 013.799-4.096l.161-.012zm-.002 4.123a1.042 1.042 0 100 2.083 1.042 1.042 0 000-2.083zm3.334 0A1.042 1.042 0 1010 10a1.042 1.042 0 000-2.083zm2.291 1.041a1.042 1.042 0 112.084 0 1.042 1.042 0 01-2.084 0z" fill="#000"/></svg>