<svg width="22" height="15" fill="none" xmlns="http://www.w3.org/2000/svg"><path fill-rule="evenodd" clip-rule="evenodd" d="M19.488 5.25a22.67 22.67 0 00-.08-.543l-.064-.401a2.908 2.908 0 00-2.872-2.45H8.355A2.548 2.548 0 005.903 0H3.612A2.93 2.93 0 00.703 2.58L.43 4.85a24.48 24.48 0 00.225 7.318 2.878 2.878 0 002.626 2.354l1.514.108c3.465.248 6.944.248 10.41 0l1.638-.117a2.717 2.717 0 001.986-1.087 5.875 5.875 0 001.409-2.111l1.25-3.213a2.093 2.093 0 00-1.952-2.852h-.048zM3.612 1.5a1.43 1.43 0 00-1.42 1.26L1.92 5.027a22.98 22.98 0 00.21 6.87c.113.62.63 1.083 1.258 1.128l.086.006 2.332-6.025A2.75 2.75 0 018.37 5.25h9.603c-.014-.102-.03-.204-.046-.306l-.064-.402a1.408 1.408 0 00-1.39-1.186H7.758a.81.81 0 01-.81-.81c0-.577-.468-1.046-1.046-1.046h-2.29z" fill="#241E20"/></svg>