<svg width="33" height="33" fill="none" xmlns="http://www.w3.org/2000/svg"><path fill-rule="evenodd" clip-rule="evenodd" d="M9.958 2.915h12.675c4.619 0 7.254 2.609 7.254 7.241v12.688c0 4.606-2.622 7.241-7.24 7.241H9.957c-4.632 0-7.24-2.635-7.24-7.24v-12.69c0-4.632 2.608-7.24 7.24-7.24zm7.458 14.713h3.858a1.145 1.145 0 001.128-1.141c0-.625-.503-1.128-1.128-1.128h-3.858v-3.83c0-.626-.503-1.128-1.127-1.128-.625 0-1.128.502-1.128 1.127v3.831h-3.845c-.298 0-.584.122-.801.326a1.176 1.176 0 00-.326.802c0 .625.503 1.127 1.127 1.14h3.845v3.845c0 .625.503 1.128 1.128 1.128.624 0 1.127-.503 1.127-1.128v-3.844z" fill="#fff"/></svg>