<svg width="177" height="52" fill="none" xmlns="http://www.w3.org/2000/svg"><path d="M52.94 10.48c0 .813-.187 1.56-.56 2.24-.373.667-.947 1.207-1.72 1.62-.773.413-1.733.62-2.88.62h-2.12V20h-3.42V5.96h5.54c1.12 0 2.067.193 2.84.58.773.387 1.353.92 1.74 1.6s.58 1.46.58 2.34zm-5.42 1.76c.653 0 1.14-.153 1.46-.46.32-.307.48-.74.48-1.3s-.16-.993-.48-1.3c-.32-.307-.807-.46-1.46-.46h-1.86v3.52h1.86zM61.68 20l-2.92-5.3h-.82V20h-3.42V5.96h5.74c1.107 0 2.047.193 2.82.58.787.387 1.374.92 1.76 1.6.387.667.58 1.413.58 2.24 0 .933-.266 1.767-.8 2.5-.52.733-1.293 1.253-2.32 1.56L65.54 20h-3.86zm-3.74-7.72h2.12c.627 0 1.094-.153 1.4-.46.32-.307.48-.74.48-1.3 0-.533-.16-.953-.48-1.26-.306-.307-.773-.46-1.4-.46h-2.12v3.48zm18.027-.72v2.84h-8.8v-2.84h8.8zm15.982-5.6L86.969 20h-4.28l-4.98-14.04h3.64l3.48 10.6 3.5-10.6h3.62zm7.87 14.18c-1.32 0-2.534-.307-3.64-.92a6.994 6.994 0 01-2.62-2.56c-.64-1.107-.96-2.347-.96-3.72 0-1.373.32-2.607.96-3.7a6.994 6.994 0 012.62-2.56c1.106-.613 2.32-.92 3.64-.92 1.319 0 2.526.307 3.619.92a6.658 6.658 0 012.6 2.56c.64 1.093.96 2.327.96 3.7 0 1.373-.32 2.613-.96 3.72a6.842 6.842 0 01-2.6 2.56c-1.093.613-2.3.92-3.62.92zm0-3.12c1.119 0 2.013-.373 2.679-1.12.68-.747 1.02-1.733 1.02-2.96 0-1.24-.34-2.227-1.02-2.96-.666-.747-1.56-1.12-2.68-1.12-1.133 0-2.04.367-2.72 1.1-.666.733-1 1.727-1 2.98 0 1.24.334 2.233 1 2.98.68.733 1.587 1.1 2.72 1.1zm12.302.34h4.48V20h-7.9V5.96h3.42v11.4zm15.231-6.96a2.485 2.485 0 00-1.1-1.06c-.466-.253-1.02-.38-1.66-.38-1.106 0-1.993.367-2.66 1.1-.666.72-1 1.687-1 2.9 0 1.293.347 2.307 1.04 3.04.707.72 1.674 1.08 2.9 1.08.84 0 1.547-.213 2.12-.64.587-.427 1.014-1.04 1.28-1.84h-4.34v-2.52h7.44v3.18a6.617 6.617 0 01-1.3 2.38c-.6.733-1.366 1.327-2.3 1.78-.933.453-1.986.68-3.16.68-1.386 0-2.626-.3-3.72-.9a6.645 6.645 0 01-2.54-2.54c-.6-1.08-.9-2.313-.9-3.7s.3-2.62.9-3.7a6.468 6.468 0 012.54-2.54c1.08-.613 2.314-.92 3.7-.92 1.68 0 3.094.407 4.24 1.22 1.16.813 1.927 1.94 2.3 3.38h-3.78zm14.455 7.12h-5.24l-.84 2.48h-3.58l5.08-14.04h3.96l5.08 14.04h-3.62l-.84-2.48zm-.88-2.64l-1.74-5.14-1.72 5.14h3.46zm8.286 5.28c-.6 0-1.094-.173-1.48-.52-.374-.36-.56-.8-.56-1.32 0-.533.186-.98.56-1.34.386-.36.88-.54 1.48-.54.586 0 1.066.18 1.44.54.386.36.58.807.58 1.34 0 .52-.194.96-.58 1.32-.374.347-.854.52-1.44.52zm0-8.14c-.6 0-1.094-.173-1.48-.52-.374-.36-.56-.8-.56-1.32 0-.533.186-.98.56-1.34.386-.36.88-.54 1.48-.54.586 0 1.066.18 1.44.54.386.36.58.807.58 1.34 0 .52-.194.96-.58 1.32-.374.347-.854.52-1.44.52zM47.36 31.72c1.84 0 3.18.4 4.02 1.2.853.787 1.28 1.873 1.28 3.26 0 .627-.093 1.227-.28 1.8a3.97 3.97 0 01-.94 1.52c-.427.44-.993.787-1.7 1.04s-1.58.38-2.62.38h-1.3V46H42.8V31.72h4.56zm-.16 2.48h-1.38v4.24h1c.573 0 1.067-.073 1.48-.22.413-.147.733-.38.96-.7.227-.32.34-.733.34-1.24 0-.707-.193-1.227-.58-1.56-.387-.347-.993-.52-1.82-.52zm12.199.66c1.466 0 2.586.32 3.36.96.786.627 1.18 1.593 1.18 2.9V46h-2.08l-.58-1.48h-.08a5.442 5.442 0 01-.96.96c-.32.253-.694.433-1.12.54-.414.12-.927.18-1.54.18-.64 0-1.22-.12-1.74-.36a2.823 2.823 0 01-1.2-1.14c-.294-.52-.44-1.173-.44-1.96 0-1.16.406-2.013 1.22-2.56.813-.56 2.033-.867 3.66-.92l1.9-.06v-.48c0-.573-.154-.993-.46-1.26-.294-.267-.707-.4-1.24-.4a5.15 5.15 0 00-1.56.24 11.61 11.61 0 00-1.52.56l-.98-2.02a8.583 8.583 0 011.94-.72 9.54 9.54 0 012.24-.26zm.42 6.12c-.96.027-1.627.2-2 .52-.374.32-.56.74-.56 1.26 0 .453.133.78.4.98.266.187.613.28 1.04.28.64 0 1.18-.187 1.62-.56.44-.387.66-.927.66-1.62v-.9l-1.16.04zm11.41 5.22c-1.08 0-2-.193-2.76-.58-.76-.4-1.34-1.013-1.74-1.84-.4-.827-.6-1.887-.6-3.18 0-1.333.227-2.42.68-3.26.453-.84 1.08-1.46 1.88-1.86.813-.4 1.747-.6 2.8-.6.747 0 1.393.073 1.94.22.56.147 1.047.32 1.46.52l-.88 2.3a14.33 14.33 0 00-1.32-.46c-.4-.12-.8-.18-1.2-.18-.52 0-.953.127-1.3.38-.347.24-.607.607-.78 1.1-.16.48-.24 1.087-.24 1.82 0 .72.087 1.32.26 1.8.187.467.453.82.8 1.06.347.227.767.34 1.26.34.627 0 1.18-.08 1.66-.24a6.86 6.86 0 001.4-.7v2.54c-.453.293-.933.5-1.44.62-.493.133-1.12.2-1.88.2zm15.553-11.12V46h-2.98v-8.68h-3.96V46h-2.98V35.08h9.92zm5.807 4.32c0 .227-.013.507-.04.84a27.64 27.64 0 01-.06 1.02c-.013.347-.033.653-.06.92-.026.267-.046.453-.06.56l5.04-7.66h3.58V46h-2.88v-4.36c0-.36.014-.753.04-1.18.027-.44.054-.847.08-1.22.04-.387.067-.68.08-.88L93.29 46h-3.58V35.08h2.88v4.32zm15.755 6.8c-1.08 0-2-.193-2.76-.58-.76-.4-1.34-1.013-1.74-1.84-.4-.827-.6-1.887-.6-3.18 0-1.333.226-2.42.68-3.26.453-.84 1.08-1.46 1.88-1.86.813-.4 1.746-.6 2.8-.6.746 0 1.393.073 1.94.22.56.147 1.046.32 1.46.52l-.88 2.3c-.467-.187-.907-.34-1.32-.46-.4-.12-.8-.18-1.2-.18-.52 0-.954.127-1.3.38-.347.24-.607.607-.78 1.1-.16.48-.24 1.087-.24 1.82 0 .72.086 1.32.26 1.8.186.467.453.82.8 1.06.346.227.766.34 1.26.34.626 0 1.18-.08 1.66-.24.48-.173.946-.407 1.4-.7v2.54c-.454.293-.934.5-1.44.62-.494.133-1.12.2-1.88.2zm10.113-11.34c1.467 0 2.587.32 3.36.96.787.627 1.18 1.593 1.18 2.9V46h-2.08l-.58-1.48h-.08a5.396 5.396 0 01-.96.96c-.32.253-.693.433-1.12.54-.413.12-.926.18-1.54.18-.64 0-1.22-.12-1.74-.36a2.831 2.831 0 01-1.2-1.14c-.293-.52-.44-1.173-.44-1.96 0-1.16.407-2.013 1.22-2.56.814-.56 2.034-.867 3.66-.92l1.9-.06v-.48c0-.573-.153-.993-.46-1.26-.293-.267-.706-.4-1.24-.4-.533 0-1.053.08-1.56.24-.506.147-1.013.333-1.52.56l-.98-2.02a8.6 8.6 0 011.94-.72 9.542 9.542 0 012.24-.26zm.42 6.12c-.96.027-1.626.2-2 .52-.373.32-.56.74-.56 1.26 0 .453.134.78.4.98.267.187.614.28 1.04.28.64 0 1.18-.187 1.62-.56.44-.387.66-.927.66-1.62v-.9l-1.16.04zm9.95-5.9v4.2h4.16v-4.2h2.98V46h-2.98v-4.5h-4.16V46h-2.98V35.08h2.98zm12.943 4.32c0 .227-.014.507-.04.84a31.19 31.19 0 01-.06 1.02 16.426 16.426 0 01-.12 1.48l5.04-7.66h3.58V46h-2.88v-4.36c0-.36.013-.753.04-1.18.026-.44.053-.847.08-1.22.04-.387.066-.68.08-.88L142.47 46h-3.58V35.08h2.88v4.32zm15.814-4.52c1.014 0 1.88.193 2.6.58a4.05 4.05 0 011.7 1.68c.4.733.6 1.633.6 2.7v1.44h-7.04c.027.84.274 1.5.74 1.98.48.48 1.14.72 1.98.72a8.49 8.49 0 001.92-.2 9.708 9.708 0 001.78-.66v2.3a6.72 6.72 0 01-1.7.58c-.586.133-1.3.2-2.14.2-1.093 0-2.06-.2-2.9-.6a4.593 4.593 0 01-1.98-1.86c-.48-.827-.72-1.867-.72-3.12 0-1.28.214-2.34.64-3.18.44-.853 1.047-1.493 1.82-1.92.774-.427 1.674-.64 2.7-.64zm.02 2.12c-.573 0-1.053.187-1.44.56-.373.373-.593.953-.66 1.74h4.18c0-.44-.08-.833-.24-1.18a1.78 1.78 0 00-.68-.82c-.306-.2-.693-.3-1.16-.3zM15.5 6c.659 2.636.988 3.955 1.495 5.11a15 15 0 008.155 7.905c1.171.47 2.499.758 5.155 1.334L31 20.5l-.695.15c-2.656.577-3.984.865-5.155 1.335a15 15 0 00-8.155 7.904c-.507 1.156-.836 2.475-1.495 5.111-.659-2.636-.988-3.955-1.495-5.11a15 15 0 00-8.155-7.905c-1.171-.47-2.499-.758-5.155-1.334L0 20.5l.695-.15c2.656-.577 3.984-.865 5.155-1.335a15 15 0 008.155-7.904c.507-1.156.836-2.475 1.495-5.111z" fill="#241E20"/></svg>