<svg width="26" height="26" fill="none" xmlns="http://www.w3.org/2000/svg"><path fill-rule="evenodd" clip-rule="evenodd" d="M14.084 3.25a1.083 1.083 0 10-2.167 0v.813h-.604a4.565 4.565 0 00-4.556 4.28l-.24 3.828a7.991 7.991 0 01-1.416 4.066 1.752 1.752 0 001.23 2.74l3.69.442v1.164a2.98 2.98 0 105.958 0V19.42l3.692-.443a1.752 1.752 0 001.229-2.74 7.992 7.992 0 01-1.417-4.066l-.24-3.827a4.565 4.565 0 00-4.555-4.28h-.604V3.25zm-2.438 17.333a1.354 1.354 0 002.708 0v-.812h-2.708v.812z" fill="#241E20"/></svg>