<svg width="24" height="24" fill="none" xmlns="http://www.w3.org/2000/svg"><path d="M4.014 4.444C3.306 5.15 2.9 6.173 2.9 7.43v6c0 1.257.406 2.279 1.114 2.986.707.708 1.729 1.114 2.986 1.114.493 0 .9.407.9.9v2.13a.09.09 0 00.016.058.14.14 0 00.041.033.1.1 0 00.039.012.104.104 0 00.062-.019l4.449-2.959L4.014 4.444zm0 0C4.72 3.736 5.743 3.33 7 3.33M4.014 4.444L7 3.33m0 0h10.01c1.257 0 2.279.406 2.986 1.114.708.707 1.114 1.729 1.114 2.986v6c0 1.257-.406 2.279-1.114 2.986-.707.708-1.729 1.114-2.986 1.114h-4c-.182 0-.36.06-.503.155L7 3.33zm2.052 18.825h.001l4.222-2.815H17c1.754 0 3.232-.59 4.271-1.629 1.04-1.04 1.629-2.517 1.629-4.271v-6c0-1.754-.59-3.232-1.629-4.271-1.04-1.04-2.517-1.63-4.271-1.63H7c-1.754 0-3.232.59-4.271 1.63C1.689 4.209 1.1 5.686 1.1 7.439v6c0 1.623.505 3.01 1.405 4.031.873.993 2.111 1.633 3.595 1.814v1.286a1.89 1.89 0 001 1.672 1.914 1.914 0 001.952-.087z" fill="#241E20" stroke="#241E20" stroke-width=".3"/><path d="M12 12.11c-.41 0-.75-.34-.75-.75v-.21c0-1.16.85-1.73 1.17-1.95.37-.25.49-.42.49-.68 0-.5-.41-.91-.91-.91s-.91.41-.91.91c0 .41-.34.75-.75.75s-.75-.34-.75-.75c0-1.33 1.08-2.41 2.41-2.41s2.41 1.08 2.41 2.41c0 1.14-.84 1.71-1.15 1.92-.39.26-.51.43-.51.71v.21c0 .42-.34.75-.75.75zm0 2.49a.749.749 0 11-.002-1.498A.749.749 0 0112 14.6z" fill="#241E20"/></svg>