<svg width="13" height="8" viewBox="0 0 13 8" fill="none" xmlns="http://www.w3.org/2000/svg">
<path d="M6.49633 8C6.62356 8 6.74101 7.97642 6.84867 7.92927C6.95633 7.87688 7.0591 7.7983 7.15697 7.69352L12.7504 1.57171C12.9168 1.39358 13 1.17878 13 0.927308C13 0.75442 12.9609 0.599869 12.8826 0.463654C12.8091 0.322201 12.7064 0.209561 12.5743 0.125737C12.447 0.0419122 12.3051 -6.10359e-08 12.1485 -5.41908e-08C11.9136 -4.39232e-08 11.7056 0.0969221 11.5246 0.290766L6.49633 5.80747L1.4681 0.290767C1.28703 0.0969225 1.0815 4.29563e-07 0.851496 4.39617e-07C0.690005 4.46676e-07 0.545642 0.0419127 0.418407 0.125737C0.291172 0.209562 0.190852 0.322201 0.117447 0.463655C0.0391489 0.59987 -3.16714e-07 0.754421 -3.09157e-07 0.927309C-2.98165e-07 1.17878 0.0807451 1.39358 0.242236 1.57171L5.83569 7.69352C5.93356 7.7983 6.03633 7.87688 6.14399 7.92927C6.25165 7.97642 6.36909 8 6.49633 8Z" fill="black"/>
</svg>
