<svg width="28" height="28" viewBox="0 0 28 28" fill="none" xmlns="http://www.w3.org/2000/svg">
<path d="M11.667 10.5C11.667 8.51667 13.1837 7 15.167 7C17.1503 7 18.667 8.51667 18.667 10.5C18.667 12.4833 17.1503 14 15.167 14C13.1837 14 11.667 12.4833 11.667 10.5ZM15.167 16.3333C9.80033 16.3333 8.16699 20.1833 8.16699 20.1833V22.1667H22.167V20.1833C22.167 20.1833 20.5337 16.3333 15.167 16.3333Z" fill="black"/>
<path d="M22.7497 12.8333C24.3605 12.8333 25.6663 11.5275 25.6663 9.91667C25.6663 8.30584 24.3605 7 22.7497 7C21.1388 7 19.833 8.30584 19.833 9.91667C19.833 11.5275 21.1388 12.8333 22.7497 12.8333Z" fill="black"/>
<path d="M22.7501 15.1667C21.3501 15.1667 20.3001 15.5167 19.4834 16.1001C22.1667 17.3834 23.2167 19.6001 23.2167 19.8334V19.9501H28.0001V18.4334C28.0001 18.3167 26.7167 15.1667 22.7501 15.1667Z" fill="black"/>
<path d="M5.83301 9.33325V18.6666" stroke="black" stroke-width="2" stroke-miterlimit="10"/>
<path d="M10.5003 14H1.16699" stroke="black" stroke-width="2" stroke-miterlimit="10"/>
</svg>
