<svg width="33" height="33" viewBox="0 0 33 33" fill="none" xmlns="http://www.w3.org/2000/svg">
<path fill-rule="evenodd" clip-rule="evenodd" d="M9.95804 2.91528H22.6328C27.2516 2.91528 29.8871 5.52358 29.8871 10.156V22.8443C29.8871 27.4496 27.2652 30.0851 22.6463 30.0851H9.95804C5.32559 30.0851 2.71729 27.4496 2.71729 22.8443V10.156C2.71729 5.52358 5.32559 2.91528 9.95804 2.91528ZM17.4162 17.6277H21.2743C21.8992 17.6142 22.4018 17.1115 22.4018 16.4866C22.4018 15.8617 21.8992 15.3591 21.2743 15.3591H17.4162V11.5281C17.4162 10.9032 16.9135 10.4006 16.2886 10.4006C15.6637 10.4006 15.1611 10.9032 15.1611 11.5281V15.3591H11.3165C11.0177 15.3591 10.7324 15.4813 10.515 15.6851C10.3112 15.9025 10.189 16.1864 10.189 16.4866C10.189 17.1115 10.6916 17.6142 11.3165 17.6277H15.1611V21.4723C15.1611 22.0972 15.6637 22.5998 16.2886 22.5998C16.9135 22.5998 17.4162 22.0972 17.4162 21.4723V17.6277Z" fill="white"/>
</svg>
