<svg width="196" height="18" viewBox="0 0 196 18" fill="none" xmlns="http://www.w3.org/2000/svg">
<path d="M31.358 7.336C31.358 7.90533 31.2273 8.428 30.966 8.904C30.7047 9.37067 30.3033 9.74867 29.762 10.038C29.2207 10.3273 28.5487 10.472 27.746 10.472H26.262V14H23.868V4.172H27.746C28.53 4.172 29.1927 4.30733 29.734 4.578C30.2753 4.84867 30.6813 5.222 30.952 5.698C31.2227 6.174 31.358 6.72 31.358 7.336ZM27.564 8.568C28.0213 8.568 28.362 8.46067 28.586 8.246C28.81 8.03133 28.922 7.728 28.922 7.336C28.922 6.944 28.81 6.64067 28.586 6.426C28.362 6.21133 28.0213 6.104 27.564 6.104H26.262V8.568H27.564ZM37.4763 14L35.4323 10.29H34.8583V14H32.4643V4.172H36.4823C37.257 4.172 37.915 4.30733 38.4563 4.578C39.007 4.84867 39.4177 5.222 39.6883 5.698C39.959 6.16467 40.0943 6.68733 40.0943 7.266C40.0943 7.91933 39.9077 8.50267 39.5343 9.016C39.1703 9.52933 38.629 9.89333 37.9103 10.108L40.1783 14H37.4763ZM34.8583 8.596H36.3423C36.781 8.596 37.1077 8.48867 37.3223 8.274C37.5463 8.05933 37.6583 7.756 37.6583 7.364C37.6583 6.99067 37.5463 6.69667 37.3223 6.482C37.1077 6.26733 36.781 6.16 36.3423 6.16H34.8583V8.596ZM47.4771 8.092V10.08H41.3171V8.092H47.4771ZM58.6642 4.172L55.1782 14H52.1822L48.6962 4.172H51.2442L53.6802 11.592L56.1302 4.172H58.6642ZM64.1728 14.098C63.2488 14.098 62.3995 13.8833 61.6248 13.454C60.8595 13.0247 60.2481 12.4273 59.7908 11.662C59.3428 10.8873 59.1188 10.0193 59.1188 9.058C59.1188 8.09667 59.3428 7.23333 59.7908 6.468C60.2481 5.70267 60.8595 5.10533 61.6248 4.676C62.3995 4.24667 63.2488 4.032 64.1728 4.032C65.0968 4.032 65.9415 4.24667 66.7068 4.676C67.4815 5.10533 68.0881 5.70267 68.5268 6.468C68.9748 7.23333 69.1988 8.09667 69.1988 9.058C69.1988 10.0193 68.9748 10.8873 68.5268 11.662C68.0788 12.4273 67.4721 13.0247 66.7068 13.454C65.9415 13.8833 65.0968 14.098 64.1728 14.098ZM64.1728 11.914C64.9568 11.914 65.5821 11.6527 66.0488 11.13C66.5248 10.6073 66.7628 9.91667 66.7628 9.058C66.7628 8.19 66.5248 7.49933 66.0488 6.986C65.5821 6.46333 64.9568 6.202 64.1728 6.202C63.3795 6.202 62.7448 6.45867 62.2688 6.972C61.8021 7.48533 61.5688 8.18067 61.5688 9.058C61.5688 9.926 61.8021 10.6213 62.2688 11.144C62.7448 11.6573 63.3795 11.914 64.1728 11.914ZM72.7847 12.152H75.9207V14H70.3907V4.172H72.7847V12.152ZM83.4465 7.28C83.2692 6.95333 83.0125 6.706 82.6765 6.538C82.3499 6.36067 81.9625 6.272 81.5145 6.272C80.7399 6.272 80.1192 6.52867 79.6525 7.042C79.1859 7.546 78.9525 8.22267 78.9525 9.072C78.9525 9.97733 79.1952 10.6867 79.6805 11.2C80.1752 11.704 80.8519 11.956 81.7105 11.956C82.2985 11.956 82.7932 11.8067 83.1945 11.508C83.6052 11.2093 83.9039 10.78 84.0905 10.22H81.0525V8.456H86.2605V10.682C86.0832 11.2793 85.7799 11.8347 85.3505 12.348C84.9305 12.8613 84.3939 13.2767 83.7405 13.594C83.0872 13.9113 82.3499 14.07 81.5285 14.07C80.5579 14.07 79.6899 13.86 78.9245 13.44C78.1685 13.0107 77.5759 12.418 77.1465 11.662C76.7265 10.906 76.5165 10.0427 76.5165 9.072C76.5165 8.10133 76.7265 7.238 77.1465 6.482C77.5759 5.71667 78.1685 5.124 78.9245 4.704C79.6805 4.27467 80.5439 4.06 81.5145 4.06C82.6905 4.06 83.6799 4.34467 84.4825 4.914C85.2945 5.48333 85.8312 6.272 86.0925 7.28H83.4465ZM93.5646 12.264H89.8966L89.3086 14H86.8026L90.3586 4.172H93.1306L96.6866 14H94.1526L93.5646 12.264ZM92.9486 10.416L91.7306 6.818L90.5266 10.416H92.9486ZM98.7489 14.112C98.3289 14.112 97.9835 13.9907 97.7129 13.748C97.4515 13.496 97.3209 13.188 97.3209 12.824C97.3209 12.4507 97.4515 12.138 97.7129 11.886C97.9835 11.634 98.3289 11.508 98.7489 11.508C99.1595 11.508 99.4955 11.634 99.7569 11.886C100.028 12.138 100.163 12.4507 100.163 12.824C100.163 13.188 100.028 13.496 99.7569 13.748C99.4955 13.9907 99.1595 14.112 98.7489 14.112ZM98.7489 8.414C98.3289 8.414 97.9835 8.29267 97.7129 8.05C97.4515 7.798 97.3209 7.49 97.3209 7.126C97.3209 6.75267 97.4515 6.44 97.7129 6.188C97.9835 5.936 98.3289 5.81 98.7489 5.81C99.1595 5.81 99.4955 5.936 99.7569 6.188C100.028 6.44 100.163 6.75267 100.163 7.126C100.163 7.49 100.028 7.798 99.7569 8.05C99.4955 8.29267 99.1595 8.414 98.7489 8.414ZM107.878 4.004C109.166 4.004 110.104 4.284 110.692 4.844C111.29 5.39467 111.588 6.15533 111.588 7.126C111.588 7.56467 111.523 7.98467 111.392 8.386C111.262 8.778 111.042 9.13267 110.734 9.45C110.436 9.758 110.039 10.0007 109.544 10.178C109.05 10.3553 108.438 10.444 107.71 10.444H106.8V14H104.686V4.004H107.878ZM107.766 5.74H106.8V8.708H107.5C107.902 8.708 108.247 8.65667 108.536 8.554C108.826 8.45133 109.05 8.288 109.208 8.064C109.367 7.84 109.446 7.55067 109.446 7.196C109.446 6.70133 109.311 6.33733 109.04 6.104C108.77 5.86133 108.345 5.74 107.766 5.74ZM116.305 6.202C117.332 6.202 118.116 6.426 118.657 6.874C119.208 7.31267 119.483 7.98933 119.483 8.904V14H118.027L117.621 12.964H117.565C117.351 13.2347 117.127 13.4587 116.893 13.636C116.669 13.8133 116.408 13.9393 116.109 14.014C115.82 14.098 115.461 14.14 115.031 14.14C114.583 14.14 114.177 14.056 113.813 13.888C113.459 13.7107 113.179 13.4447 112.973 13.09C112.768 12.726 112.665 12.2687 112.665 11.718C112.665 10.906 112.95 10.3087 113.519 9.926C114.089 9.534 114.943 9.31933 116.081 9.282L117.411 9.24V8.904C117.411 8.50267 117.304 8.20867 117.089 8.022C116.884 7.83533 116.595 7.742 116.221 7.742C115.848 7.742 115.484 7.798 115.129 7.91C114.775 8.01267 114.42 8.14333 114.065 8.302L113.379 6.888C113.79 6.67333 114.243 6.50533 114.737 6.384C115.241 6.26267 115.764 6.202 116.305 6.202ZM116.599 10.486C115.927 10.5047 115.461 10.626 115.199 10.85C114.938 11.074 114.807 11.368 114.807 11.732C114.807 12.0493 114.901 12.278 115.087 12.418C115.274 12.5487 115.517 12.614 115.815 12.614C116.263 12.614 116.641 12.4833 116.949 12.222C117.257 11.9513 117.411 11.5733 117.411 11.088V10.458L116.599 10.486ZM124.586 14.14C123.83 14.14 123.186 14.0047 122.654 13.734C122.122 13.454 121.716 13.0247 121.436 12.446C121.156 11.8673 121.016 11.1253 121.016 10.22C121.016 9.28667 121.175 8.526 121.492 7.938C121.81 7.35 122.248 6.916 122.808 6.636C123.378 6.356 124.031 6.216 124.768 6.216C125.291 6.216 125.744 6.26733 126.126 6.37C126.518 6.47267 126.859 6.594 127.148 6.734L126.532 8.344C126.206 8.21333 125.898 8.106 125.608 8.022C125.328 7.938 125.048 7.896 124.768 7.896C124.404 7.896 124.101 7.98467 123.858 8.162C123.616 8.33 123.434 8.58667 123.312 8.932C123.2 9.268 123.144 9.69267 123.144 10.206C123.144 10.71 123.205 11.13 123.326 11.466C123.457 11.7927 123.644 12.04 123.886 12.208C124.129 12.3667 124.423 12.446 124.768 12.446C125.207 12.446 125.594 12.39 125.93 12.278C126.266 12.1567 126.593 11.9933 126.91 11.788V13.566C126.593 13.7713 126.257 13.916 125.902 14C125.557 14.0933 125.118 14.14 124.586 14.14ZM135.474 6.356V14H133.388V7.924H130.616V14H128.53V6.356H135.474ZM139.539 9.38C139.539 9.53867 139.529 9.73467 139.511 9.968C139.501 10.2013 139.487 10.4393 139.469 10.682C139.459 10.9247 139.445 11.1393 139.427 11.326C139.408 11.5127 139.394 11.6433 139.385 11.718L142.913 6.356H145.419V14H143.403V10.948C143.403 10.696 143.412 10.4207 143.431 10.122C143.449 9.814 143.468 9.52933 143.487 9.268C143.515 8.99733 143.533 8.792 143.543 8.652L140.029 14H137.523V6.356H139.539V9.38ZM150.567 14.14C149.811 14.14 149.167 14.0047 148.635 13.734C148.103 13.454 147.697 13.0247 147.417 12.446C147.137 11.8673 146.997 11.1253 146.997 10.22C146.997 9.28667 147.155 8.526 147.473 7.938C147.79 7.35 148.229 6.916 148.789 6.636C149.358 6.356 150.011 6.216 150.749 6.216C151.271 6.216 151.724 6.26733 152.107 6.37C152.499 6.47267 152.839 6.594 153.129 6.734L152.513 8.344C152.186 8.21333 151.878 8.106 151.589 8.022C151.309 7.938 151.029 7.896 150.749 7.896C150.385 7.896 150.081 7.98467 149.839 8.162C149.596 8.33 149.414 8.58667 149.293 8.932C149.181 9.268 149.125 9.69267 149.125 10.206C149.125 10.71 149.185 11.13 149.307 11.466C149.437 11.7927 149.624 12.04 149.867 12.208C150.109 12.3667 150.403 12.446 150.749 12.446C151.187 12.446 151.575 12.39 151.911 12.278C152.247 12.1567 152.573 11.9933 152.891 11.788V13.566C152.573 13.7713 152.237 13.916 151.883 14C151.537 14.0933 151.099 14.14 150.567 14.14ZM157.646 6.202C158.673 6.202 159.457 6.426 159.998 6.874C160.549 7.31267 160.824 7.98933 160.824 8.904V14H159.368L158.962 12.964H158.906C158.692 13.2347 158.468 13.4587 158.234 13.636C158.01 13.8133 157.749 13.9393 157.45 14.014C157.161 14.098 156.802 14.14 156.372 14.14C155.924 14.14 155.518 14.056 155.154 13.888C154.8 13.7107 154.52 13.4447 154.314 13.09C154.109 12.726 154.006 12.2687 154.006 11.718C154.006 10.906 154.291 10.3087 154.86 9.926C155.43 9.534 156.284 9.31933 157.422 9.282L158.752 9.24V8.904C158.752 8.50267 158.645 8.20867 158.43 8.022C158.225 7.83533 157.936 7.742 157.562 7.742C157.189 7.742 156.825 7.798 156.47 7.91C156.116 8.01267 155.761 8.14333 155.406 8.302L154.72 6.888C155.131 6.67333 155.584 6.50533 156.078 6.384C156.582 6.26267 157.105 6.202 157.646 6.202ZM157.94 10.486C157.268 10.5047 156.802 10.626 156.54 10.85C156.279 11.074 156.148 11.368 156.148 11.732C156.148 12.0493 156.242 12.278 156.428 12.418C156.615 12.5487 156.858 12.614 157.156 12.614C157.604 12.614 157.982 12.4833 158.29 12.222C158.598 11.9513 158.752 11.5733 158.752 11.088V10.458L157.94 10.486ZM164.905 6.356V9.296H167.817V6.356H169.903V14H167.817V10.85H164.905V14H162.819V6.356H164.905ZM173.965 9.38C173.965 9.53867 173.956 9.73467 173.937 9.968C173.928 10.2013 173.914 10.4393 173.895 10.682C173.886 10.9247 173.872 11.1393 173.853 11.326C173.834 11.5127 173.82 11.6433 173.811 11.718L177.339 6.356H179.845V14H177.829V10.948C177.829 10.696 177.838 10.4207 177.857 10.122C177.876 9.814 177.894 9.52933 177.913 9.268C177.941 8.99733 177.96 8.792 177.969 8.652L174.455 14H171.949V6.356H173.965V9.38ZM185.035 6.216C185.744 6.216 186.351 6.35133 186.855 6.622C187.368 6.89267 187.765 7.28467 188.045 7.798C188.325 8.31133 188.465 8.94133 188.465 9.688V10.696H183.537C183.556 11.284 183.728 11.746 184.055 12.082C184.391 12.418 184.853 12.586 185.441 12.586C185.936 12.586 186.384 12.5393 186.785 12.446C187.186 12.3433 187.602 12.1893 188.031 11.984V13.594C187.658 13.7807 187.261 13.916 186.841 14C186.43 14.0933 185.931 14.14 185.343 14.14C184.578 14.14 183.901 14 183.313 13.72C182.725 13.4307 182.263 12.9967 181.927 12.418C181.591 11.8393 181.423 11.1113 181.423 10.234C181.423 9.338 181.572 8.596 181.871 8.008C182.179 7.41067 182.604 6.96267 183.145 6.664C183.686 6.36533 184.316 6.216 185.035 6.216ZM185.049 7.7C184.648 7.7 184.312 7.83067 184.041 8.092C183.78 8.35333 183.626 8.75933 183.579 9.31H186.505C186.505 9.002 186.449 8.72667 186.337 8.484C186.234 8.24133 186.076 8.05 185.861 7.91C185.646 7.77 185.376 7.7 185.049 7.7Z" fill="#9493A2"/>
<path d="M8.5 1C9.48822 4.97821 12.6494 8.05033 16.6542 8.92452L17 9L16.6542 9.07549C12.6494 9.94967 9.48822 13.0218 8.5 17C7.51179 13.0218 4.35063 9.94967 0.345814 9.07549L0 9L0.345814 8.92452C4.35063 8.05033 7.51179 4.97821 8.5 1Z" fill="#9493A2"/>
</svg>
