<svg width="177" height="52" viewBox="0 0 177 52" fill="none" xmlns="http://www.w3.org/2000/svg">
<path d="M52.94 10.48C52.94 11.2933 52.7533 12.04 52.38 12.72C52.0067 13.3867 51.4333 13.9267 50.66 14.34C49.8867 14.7533 48.9267 14.96 47.78 14.96H45.66V20H42.24V5.96H47.78C48.9 5.96 49.8467 6.15333 50.62 6.54C51.3933 6.92667 51.9733 7.46 52.36 8.14C52.7467 8.82 52.94 9.6 52.94 10.48ZM47.52 12.24C48.1733 12.24 48.66 12.0867 48.98 11.78C49.3 11.4733 49.46 11.04 49.46 10.48C49.46 9.92 49.3 9.48667 48.98 9.18C48.66 8.87333 48.1733 8.72 47.52 8.72H45.66V12.24H47.52ZM61.6805 20L58.7605 14.7H57.9405V20H54.5205V5.96H60.2605C61.3671 5.96 62.3071 6.15333 63.0805 6.54C63.8671 6.92667 64.4538 7.46 64.8405 8.14C65.2271 8.80667 65.4205 9.55333 65.4205 10.38C65.4205 11.3133 65.1538 12.1467 64.6205 12.88C64.1005 13.6133 63.3271 14.1333 62.3005 14.44L65.5405 20H61.6805ZM57.9405 12.28H60.0605C60.6871 12.28 61.1538 12.1267 61.4605 11.82C61.7805 11.5133 61.9405 11.08 61.9405 10.52C61.9405 9.98667 61.7805 9.56667 61.4605 9.26C61.1538 8.95333 60.6871 8.8 60.0605 8.8H57.9405V12.28ZM75.9673 11.56V14.4H67.1673V11.56H75.9673ZM91.9489 5.96L86.9689 20H82.6889L77.7089 5.96H81.3489L84.8289 16.56L88.3289 5.96H91.9489ZM99.8183 20.14C98.4983 20.14 97.2849 19.8333 96.1783 19.22C95.0849 18.6067 94.2116 17.7533 93.5583 16.66C92.9183 15.5533 92.5983 14.3133 92.5983 12.94C92.5983 11.5667 92.9183 10.3333 93.5583 9.24C94.2116 8.14667 95.0849 7.29333 96.1783 6.68C97.2849 6.06667 98.4983 5.76 99.8183 5.76C101.138 5.76 102.345 6.06667 103.438 6.68C104.545 7.29333 105.412 8.14667 106.038 9.24C106.678 10.3333 106.998 11.5667 106.998 12.94C106.998 14.3133 106.678 15.5533 106.038 16.66C105.398 17.7533 104.532 18.6067 103.438 19.22C102.345 19.8333 101.138 20.14 99.8183 20.14ZM99.8183 17.02C100.938 17.02 101.832 16.6467 102.498 15.9C103.178 15.1533 103.518 14.1667 103.518 12.94C103.518 11.7 103.178 10.7133 102.498 9.98C101.832 9.23333 100.938 8.86 99.8183 8.86C98.6849 8.86 97.7783 9.22667 97.0983 9.96C96.4316 10.6933 96.0983 11.6867 96.0983 12.94C96.0983 14.18 96.4316 15.1733 97.0983 15.92C97.7783 16.6533 98.6849 17.02 99.8183 17.02ZM112.121 17.36H116.601V20H108.701V5.96H112.121V17.36ZM127.352 10.4C127.099 9.93333 126.732 9.58 126.252 9.34C125.786 9.08667 125.232 8.96 124.592 8.96C123.486 8.96 122.599 9.32667 121.932 10.06C121.266 10.78 120.932 11.7467 120.932 12.96C120.932 14.2533 121.279 15.2667 121.972 16C122.679 16.72 123.646 17.08 124.872 17.08C125.712 17.08 126.419 16.8667 126.992 16.44C127.579 16.0133 128.006 15.4 128.272 14.6H123.932V12.08H131.372V15.26C131.119 16.1133 130.686 16.9067 130.072 17.64C129.472 18.3733 128.706 18.9667 127.772 19.42C126.839 19.8733 125.786 20.1 124.612 20.1C123.226 20.1 121.986 19.8 120.892 19.2C119.812 18.5867 118.966 17.74 118.352 16.66C117.752 15.58 117.452 14.3467 117.452 12.96C117.452 11.5733 117.752 10.34 118.352 9.26C118.966 8.16667 119.812 7.32 120.892 6.72C121.972 6.10667 123.206 5.8 124.592 5.8C126.272 5.8 127.686 6.20667 128.832 7.02C129.992 7.83333 130.759 8.96 131.132 10.4H127.352ZM141.807 17.52H136.567L135.727 20H132.147L137.227 5.96H141.187L146.267 20H142.647L141.807 17.52ZM140.927 14.88L139.187 9.74L137.467 14.88H140.927ZM149.213 20.16C148.613 20.16 148.119 19.9867 147.733 19.64C147.359 19.28 147.173 18.84 147.173 18.32C147.173 17.7867 147.359 17.34 147.733 16.98C148.119 16.62 148.613 16.44 149.213 16.44C149.799 16.44 150.279 16.62 150.653 16.98C151.039 17.34 151.233 17.7867 151.233 18.32C151.233 18.84 151.039 19.28 150.653 19.64C150.279 19.9867 149.799 20.16 149.213 20.16ZM149.213 12.02C148.613 12.02 148.119 11.8467 147.733 11.5C147.359 11.14 147.173 10.7 147.173 10.18C147.173 9.64667 147.359 9.2 147.733 8.84C148.119 8.48 148.613 8.3 149.213 8.3C149.799 8.3 150.279 8.48 150.653 8.84C151.039 9.2 151.233 9.64667 151.233 10.18C151.233 10.7 151.039 11.14 150.653 11.5C150.279 11.8467 149.799 12.02 149.213 12.02ZM47.36 31.72C49.2 31.72 50.54 32.12 51.38 32.92C52.2333 33.7067 52.66 34.7933 52.66 36.18C52.66 36.8067 52.5667 37.4067 52.38 37.98C52.1933 38.54 51.88 39.0467 51.44 39.5C51.0133 39.94 50.4467 40.2867 49.74 40.54C49.0333 40.7933 48.16 40.92 47.12 40.92H45.82V46H42.8V31.72H47.36ZM47.2 34.2H45.82V38.44H46.82C47.3933 38.44 47.8867 38.3667 48.3 38.22C48.7133 38.0733 49.0333 37.84 49.26 37.52C49.4867 37.2 49.6 36.7867 49.6 36.28C49.6 35.5733 49.4067 35.0533 49.02 34.72C48.6333 34.3733 48.0267 34.2 47.2 34.2ZM59.3986 34.86C60.8653 34.86 61.9853 35.18 62.7586 35.82C63.5453 36.4467 63.9386 37.4133 63.9386 38.72V46H61.8586L61.2786 44.52H61.1986C60.8919 44.9067 60.5719 45.2267 60.2386 45.48C59.9186 45.7333 59.5453 45.9133 59.1186 46.02C58.7053 46.14 58.1919 46.2 57.5786 46.2C56.9386 46.2 56.3586 46.08 55.8386 45.84C55.3319 45.5867 54.9319 45.2067 54.6386 44.7C54.3453 44.18 54.1986 43.5267 54.1986 42.74C54.1986 41.58 54.6053 40.7267 55.4186 40.18C56.2319 39.62 57.4519 39.3133 59.0786 39.26L60.9786 39.2V38.72C60.9786 38.1467 60.8253 37.7267 60.5186 37.46C60.2253 37.1933 59.8119 37.06 59.2786 37.06C58.7453 37.06 58.2253 37.14 57.7186 37.3C57.2119 37.4467 56.7053 37.6333 56.1986 37.86L55.2186 35.84C55.8053 35.5333 56.4519 35.2933 57.1586 35.12C57.8786 34.9467 58.6253 34.86 59.3986 34.86ZM59.8186 40.98C58.8586 41.0067 58.1919 41.18 57.8186 41.5C57.4453 41.82 57.2586 42.24 57.2586 42.76C57.2586 43.2133 57.3919 43.54 57.6586 43.74C57.9253 43.9267 58.2719 44.02 58.6986 44.02C59.3386 44.02 59.8786 43.8333 60.3186 43.46C60.7586 43.0733 60.9786 42.5333 60.9786 41.84V40.94L59.8186 40.98ZM71.2289 46.2C70.1489 46.2 69.2289 46.0067 68.4689 45.62C67.7089 45.22 67.1289 44.6067 66.7289 43.78C66.3289 42.9533 66.1289 41.8933 66.1289 40.6C66.1289 39.2667 66.3556 38.18 66.8089 37.34C67.2622 36.5 67.8889 35.88 68.6889 35.48C69.5022 35.08 70.4356 34.88 71.4889 34.88C72.2356 34.88 72.8822 34.9533 73.4289 35.1C73.9889 35.2467 74.4756 35.42 74.8889 35.62L74.0089 37.92C73.5422 37.7333 73.1022 37.58 72.6889 37.46C72.2889 37.34 71.8889 37.28 71.4889 37.28C70.9689 37.28 70.5356 37.4067 70.1889 37.66C69.8422 37.9 69.5822 38.2667 69.4089 38.76C69.2489 39.24 69.1689 39.8467 69.1689 40.58C69.1689 41.3 69.2556 41.9 69.4289 42.38C69.6156 42.8467 69.8822 43.2 70.2289 43.44C70.5756 43.6667 70.9956 43.78 71.4889 43.78C72.1156 43.78 72.6689 43.7 73.1489 43.54C73.6289 43.3667 74.0956 43.1333 74.5489 42.84V45.38C74.0956 45.6733 73.6156 45.88 73.1089 46C72.6156 46.1333 71.9889 46.2 71.2289 46.2ZM86.7823 35.08V46H83.8023V37.32H79.8423V46H76.8623V35.08H86.7823ZM92.5892 39.4C92.5892 39.6267 92.5759 39.9067 92.5492 40.24C92.5359 40.5733 92.5159 40.9133 92.4892 41.26C92.4759 41.6067 92.4559 41.9133 92.4292 42.18C92.4026 42.4467 92.3826 42.6333 92.3692 42.74L97.4092 35.08H100.989V46H98.1092V41.64C98.1092 41.28 98.1226 40.8867 98.1492 40.46C98.1759 40.02 98.2026 39.6133 98.2292 39.24C98.2692 38.8533 98.2959 38.56 98.3092 38.36L93.2892 46H89.7092V35.08H92.5892V39.4ZM108.344 46.2C107.264 46.2 106.344 46.0067 105.584 45.62C104.824 45.22 104.244 44.6067 103.844 43.78C103.444 42.9533 103.244 41.8933 103.244 40.6C103.244 39.2667 103.47 38.18 103.924 37.34C104.377 36.5 105.004 35.88 105.804 35.48C106.617 35.08 107.55 34.88 108.604 34.88C109.35 34.88 109.997 34.9533 110.544 35.1C111.104 35.2467 111.59 35.42 112.004 35.62L111.124 37.92C110.657 37.7333 110.217 37.58 109.804 37.46C109.404 37.34 109.004 37.28 108.604 37.28C108.084 37.28 107.65 37.4067 107.304 37.66C106.957 37.9 106.697 38.2667 106.524 38.76C106.364 39.24 106.284 39.8467 106.284 40.58C106.284 41.3 106.37 41.9 106.544 42.38C106.73 42.8467 106.997 43.2 107.344 43.44C107.69 43.6667 108.11 43.78 108.604 43.78C109.23 43.78 109.784 43.7 110.264 43.54C110.744 43.3667 111.21 43.1333 111.664 42.84V45.38C111.21 45.6733 110.73 45.88 110.224 46C109.73 46.1333 109.104 46.2 108.344 46.2ZM118.457 34.86C119.924 34.86 121.044 35.18 121.817 35.82C122.604 36.4467 122.997 37.4133 122.997 38.72V46H120.917L120.337 44.52H120.257C119.951 44.9067 119.631 45.2267 119.297 45.48C118.977 45.7333 118.604 45.9133 118.177 46.02C117.764 46.14 117.251 46.2 116.637 46.2C115.997 46.2 115.417 46.08 114.897 45.84C114.391 45.5867 113.991 45.2067 113.697 44.7C113.404 44.18 113.257 43.5267 113.257 42.74C113.257 41.58 113.664 40.7267 114.477 40.18C115.291 39.62 116.511 39.3133 118.137 39.26L120.037 39.2V38.72C120.037 38.1467 119.884 37.7267 119.577 37.46C119.284 37.1933 118.871 37.06 118.337 37.06C117.804 37.06 117.284 37.14 116.777 37.3C116.271 37.4467 115.764 37.6333 115.257 37.86L114.277 35.84C114.864 35.5333 115.511 35.2933 116.217 35.12C116.937 34.9467 117.684 34.86 118.457 34.86ZM118.877 40.98C117.917 41.0067 117.251 41.18 116.877 41.5C116.504 41.82 116.317 42.24 116.317 42.76C116.317 43.2133 116.451 43.54 116.717 43.74C116.984 43.9267 117.331 44.02 117.757 44.02C118.397 44.02 118.937 43.8333 119.377 43.46C119.817 43.0733 120.037 42.5333 120.037 41.84V40.94L118.877 40.98ZM128.827 35.08V39.28H132.987V35.08H135.967V46H132.987V41.5H128.827V46H125.847V35.08H128.827ZM141.77 39.4C141.77 39.6267 141.756 39.9067 141.73 40.24C141.716 40.5733 141.696 40.9133 141.67 41.26C141.656 41.6067 141.636 41.9133 141.61 42.18C141.583 42.4467 141.563 42.6333 141.55 42.74L146.59 35.08H150.17V46H147.29V41.64C147.29 41.28 147.303 40.8867 147.33 40.46C147.356 40.02 147.383 39.6133 147.41 39.24C147.45 38.8533 147.476 38.56 147.49 38.36L142.47 46H138.89V35.08H141.77V39.4ZM157.584 34.88C158.598 34.88 159.464 35.0733 160.184 35.46C160.918 35.8467 161.484 36.4067 161.884 37.14C162.284 37.8733 162.484 38.7733 162.484 39.84V41.28H155.444C155.471 42.12 155.718 42.78 156.184 43.26C156.664 43.74 157.324 43.98 158.164 43.98C158.871 43.98 159.511 43.9133 160.084 43.78C160.658 43.6333 161.251 43.4133 161.864 43.12V45.42C161.331 45.6867 160.764 45.88 160.164 46C159.578 46.1333 158.864 46.2 158.024 46.2C156.931 46.2 155.964 46 155.124 45.6C154.284 45.1867 153.624 44.5667 153.144 43.74C152.664 42.9133 152.424 41.8733 152.424 40.62C152.424 39.34 152.638 38.28 153.064 37.44C153.504 36.5867 154.111 35.9467 154.884 35.52C155.658 35.0933 156.558 34.88 157.584 34.88ZM157.604 37C157.031 37 156.551 37.1867 156.164 37.56C155.791 37.9333 155.571 38.5133 155.504 39.3H159.684C159.684 38.86 159.604 38.4667 159.444 38.12C159.298 37.7733 159.071 37.5 158.764 37.3C158.458 37.1 158.071 37 157.604 37Z" fill="#241E20"/>
<path d="M15.5 6V6C16.1589 8.63649 16.4884 9.95474 16.9946 11.1107C18.572 14.7125 21.5005 17.5509 25.1498 19.015C26.321 19.4848 27.6489 19.7729 30.3047 20.3492L31 20.5L30.3047 20.6508C27.6489 21.2271 26.321 21.5152 25.1498 21.985C21.5005 23.4491 18.572 26.2875 16.9946 29.8893C16.4884 31.0453 16.1589 32.3635 15.5 35V35V35C14.8411 32.3635 14.5116 31.0453 14.0054 29.8893C12.4281 26.2875 9.49952 23.4491 5.85022 21.985C4.67896 21.5152 3.35107 21.2271 0.695276 20.6508L0 20.5L0.695278 20.3492C3.35107 19.7729 4.67896 19.4848 5.85022 19.015C9.49952 17.5509 12.4281 14.7125 14.0054 11.1107C14.5116 9.95474 14.8411 8.63649 15.5 6V6Z" fill="#241E20"/>
</svg>
