<svg width="307" height="24" viewBox="0 0 307 24" fill="none" xmlns="http://www.w3.org/2000/svg">
<path d="M171.164 10.288C171.164 10.776 171.052 11.224 170.828 11.632C170.604 12.032 170.26 12.356 169.796 12.604C169.332 12.852 168.756 12.976 168.068 12.976H166.796V16H164.744V7.576H168.068C168.74 7.576 169.308 7.692 169.772 7.924C170.236 8.156 170.584 8.476 170.816 8.884C171.048 9.292 171.164 9.76 171.164 10.288ZM167.912 11.344C168.304 11.344 168.596 11.252 168.788 11.068C168.98 10.884 169.076 10.624 169.076 10.288C169.076 9.952 168.98 9.692 168.788 9.508C168.596 9.324 168.304 9.232 167.912 9.232H166.796V11.344H167.912ZM176.408 16L174.656 12.82H174.164V16H172.112V7.576H175.556C176.22 7.576 176.784 7.692 177.248 7.924C177.72 8.156 178.072 8.476 178.304 8.884C178.536 9.284 178.652 9.732 178.652 10.228C178.652 10.788 178.492 11.288 178.172 11.728C177.86 12.168 177.396 12.48 176.78 12.664L178.724 16H176.408ZM174.164 11.368H175.436C175.812 11.368 176.092 11.276 176.276 11.092C176.468 10.908 176.564 10.648 176.564 10.312C176.564 9.992 176.468 9.74 176.276 9.556C176.092 9.372 175.812 9.28 175.436 9.28H174.164V11.368ZM184.98 10.936V12.64H179.7V10.936H184.98ZM194.569 7.576L191.581 16H189.013L186.025 7.576H188.209L190.297 13.936L192.397 7.576H194.569ZM199.291 16.084C198.499 16.084 197.771 15.9 197.107 15.532C196.451 15.164 195.927 14.652 195.535 13.996C195.151 13.332 194.959 12.588 194.959 11.764C194.959 10.94 195.151 10.2 195.535 9.544C195.927 8.888 196.451 8.376 197.107 8.008C197.771 7.64 198.499 7.456 199.291 7.456C200.083 7.456 200.807 7.64 201.463 8.008C202.127 8.376 202.647 8.888 203.023 9.544C203.407 10.2 203.599 10.94 203.599 11.764C203.599 12.588 203.407 13.332 203.023 13.996C202.639 14.652 202.119 15.164 201.463 15.532C200.807 15.9 200.083 16.084 199.291 16.084ZM199.291 14.212C199.963 14.212 200.499 13.988 200.899 13.54C201.307 13.092 201.511 12.5 201.511 11.764C201.511 11.02 201.307 10.428 200.899 9.988C200.499 9.54 199.963 9.316 199.291 9.316C198.611 9.316 198.067 9.536 197.659 9.976C197.259 10.416 197.059 11.012 197.059 11.764C197.059 12.508 197.259 13.104 197.659 13.552C198.067 13.992 198.611 14.212 199.291 14.212ZM206.673 14.416H209.361V16H204.621V7.576H206.673V14.416ZM215.811 10.24C215.659 9.96 215.439 9.748 215.151 9.604C214.871 9.452 214.539 9.376 214.155 9.376C213.491 9.376 212.959 9.596 212.559 10.036C212.159 10.468 211.959 11.048 211.959 11.776C211.959 12.552 212.167 13.16 212.583 13.6C213.007 14.032 213.587 14.248 214.323 14.248C214.827 14.248 215.251 14.12 215.595 13.864C215.947 13.608 216.203 13.24 216.363 12.76H213.759V11.248H218.223V13.156C218.071 13.668 217.811 14.144 217.443 14.584C217.083 15.024 216.623 15.38 216.063 15.652C215.503 15.924 214.871 16.06 214.167 16.06C213.335 16.06 212.591 15.88 211.935 15.52C211.287 15.152 210.779 14.644 210.411 13.996C210.051 13.348 209.871 12.608 209.871 11.776C209.871 10.944 210.051 10.204 210.411 9.556C210.779 8.9 211.287 8.392 211.935 8.032C212.583 7.664 213.323 7.48 214.155 7.48C215.163 7.48 216.011 7.724 216.699 8.212C217.395 8.7 217.855 9.376 218.079 10.24H215.811ZM224.484 14.512H221.34L220.836 16H218.688L221.736 7.576H224.112L227.16 16H224.988L224.484 14.512ZM223.956 12.928L222.912 9.844L221.88 12.928H223.956ZM228.928 16.096C228.568 16.096 228.272 15.992 228.04 15.784C227.816 15.568 227.704 15.304 227.704 14.992C227.704 14.672 227.816 14.404 228.04 14.188C228.272 13.972 228.568 13.864 228.928 13.864C229.28 13.864 229.568 13.972 229.792 14.188C230.024 14.404 230.14 14.672 230.14 14.992C230.14 15.304 230.024 15.568 229.792 15.784C229.568 15.992 229.28 16.096 228.928 16.096ZM228.928 11.212C228.568 11.212 228.272 11.108 228.04 10.9C227.816 10.684 227.704 10.42 227.704 10.108C227.704 9.788 227.816 9.52 228.04 9.304C228.272 9.088 228.568 8.98 228.928 8.98C229.28 8.98 229.568 9.088 229.792 9.304C230.024 9.52 230.14 9.788 230.14 10.108C230.14 10.42 230.024 10.684 229.792 10.9C229.568 11.108 229.28 11.212 228.928 11.212ZM236.753 7.432C237.857 7.432 238.661 7.672 239.165 8.152C239.677 8.624 239.933 9.276 239.933 10.108C239.933 10.484 239.877 10.844 239.765 11.188C239.653 11.524 239.465 11.828 239.201 12.1C238.945 12.364 238.605 12.572 238.181 12.724C237.757 12.876 237.233 12.952 236.609 12.952H235.829V16H234.017V7.432H236.753ZM236.657 8.92H235.829V11.464H236.429C236.773 11.464 237.069 11.42 237.317 11.332C237.565 11.244 237.757 11.104 237.893 10.912C238.029 10.72 238.097 10.472 238.097 10.168C238.097 9.744 237.981 9.432 237.749 9.232C237.517 9.024 237.153 8.92 236.657 8.92ZM243.976 9.316C244.856 9.316 245.528 9.508 245.992 9.892C246.464 10.268 246.7 10.848 246.7 11.632V16H245.452L245.104 15.112H245.056C244.872 15.344 244.68 15.536 244.48 15.688C244.288 15.84 244.064 15.948 243.808 16.012C243.56 16.084 243.252 16.12 242.884 16.12C242.5 16.12 242.152 16.048 241.84 15.904C241.536 15.752 241.296 15.524 241.12 15.22C240.944 14.908 240.856 14.516 240.856 14.044C240.856 13.348 241.1 12.836 241.588 12.508C242.076 12.172 242.808 11.988 243.784 11.956L244.924 11.92V11.632C244.924 11.288 244.832 11.036 244.648 10.876C244.472 10.716 244.224 10.636 243.904 10.636C243.584 10.636 243.272 10.684 242.968 10.78C242.664 10.868 242.36 10.98 242.056 11.116L241.468 9.904C241.82 9.72 242.208 9.576 242.632 9.472C243.064 9.368 243.512 9.316 243.976 9.316ZM244.228 12.988C243.652 13.004 243.252 13.108 243.028 13.3C242.804 13.492 242.692 13.744 242.692 14.056C242.692 14.328 242.772 14.524 242.932 14.644C243.092 14.756 243.3 14.812 243.556 14.812C243.94 14.812 244.264 14.7 244.528 14.476C244.792 14.244 244.924 13.92 244.924 13.504V12.964L244.228 12.988ZM251.074 16.12C250.426 16.12 249.874 16.004 249.418 15.772C248.962 15.532 248.614 15.164 248.374 14.668C248.134 14.172 248.014 13.536 248.014 12.76C248.014 11.96 248.15 11.308 248.422 10.804C248.694 10.3 249.07 9.928 249.55 9.688C250.038 9.448 250.598 9.328 251.23 9.328C251.678 9.328 252.066 9.372 252.394 9.46C252.73 9.548 253.022 9.652 253.27 9.772L252.742 11.152C252.462 11.04 252.198 10.948 251.95 10.876C251.71 10.804 251.47 10.768 251.23 10.768C250.918 10.768 250.658 10.844 250.45 10.996C250.242 11.14 250.086 11.36 249.982 11.656C249.886 11.944 249.838 12.308 249.838 12.748C249.838 13.18 249.89 13.54 249.994 13.828C250.106 14.108 250.266 14.32 250.474 14.464C250.682 14.6 250.934 14.668 251.23 14.668C251.606 14.668 251.938 14.62 252.226 14.524C252.514 14.42 252.794 14.28 253.066 14.104V15.628C252.794 15.804 252.506 15.928 252.202 16C251.906 16.08 251.53 16.12 251.074 16.12ZM260.406 9.448V16H258.618V10.792H256.242V16H254.454V9.448H260.406ZM263.89 12.04C263.89 12.176 263.882 12.344 263.866 12.544C263.858 12.744 263.846 12.948 263.83 13.156C263.822 13.364 263.81 13.548 263.794 13.708C263.778 13.868 263.766 13.98 263.758 14.044L266.782 9.448H268.93V16H267.202V13.384C267.202 13.168 267.21 12.932 267.226 12.676C267.242 12.412 267.258 12.168 267.274 11.944C267.298 11.712 267.314 11.536 267.322 11.416L264.31 16H262.162V9.448H263.89V12.04ZM273.343 16.12C272.695 16.12 272.143 16.004 271.687 15.772C271.231 15.532 270.883 15.164 270.643 14.668C270.403 14.172 270.283 13.536 270.283 12.76C270.283 11.96 270.419 11.308 270.691 10.804C270.963 10.3 271.339 9.928 271.819 9.688C272.307 9.448 272.867 9.328 273.499 9.328C273.947 9.328 274.335 9.372 274.663 9.46C274.999 9.548 275.291 9.652 275.539 9.772L275.011 11.152C274.731 11.04 274.467 10.948 274.219 10.876C273.979 10.804 273.739 10.768 273.499 10.768C273.187 10.768 272.927 10.844 272.719 10.996C272.511 11.14 272.355 11.36 272.251 11.656C272.155 11.944 272.107 12.308 272.107 12.748C272.107 13.18 272.159 13.54 272.263 13.828C272.375 14.108 272.535 14.32 272.743 14.464C272.951 14.6 273.203 14.668 273.499 14.668C273.875 14.668 274.207 14.62 274.495 14.524C274.783 14.42 275.063 14.28 275.335 14.104V15.628C275.063 15.804 274.775 15.928 274.471 16C274.175 16.08 273.799 16.12 273.343 16.12ZM279.411 9.316C280.291 9.316 280.963 9.508 281.427 9.892C281.899 10.268 282.135 10.848 282.135 11.632V16H280.887L280.539 15.112H280.491C280.307 15.344 280.115 15.536 279.915 15.688C279.723 15.84 279.499 15.948 279.243 16.012C278.995 16.084 278.687 16.12 278.319 16.12C277.935 16.12 277.587 16.048 277.275 15.904C276.971 15.752 276.731 15.524 276.555 15.22C276.379 14.908 276.291 14.516 276.291 14.044C276.291 13.348 276.535 12.836 277.023 12.508C277.511 12.172 278.243 11.988 279.219 11.956L280.359 11.92V11.632C280.359 11.288 280.267 11.036 280.083 10.876C279.907 10.716 279.659 10.636 279.339 10.636C279.019 10.636 278.707 10.684 278.403 10.78C278.099 10.868 277.795 10.98 277.491 11.116L276.903 9.904C277.255 9.72 277.643 9.576 278.067 9.472C278.499 9.368 278.947 9.316 279.411 9.316ZM279.663 12.988C279.087 13.004 278.687 13.108 278.463 13.3C278.239 13.492 278.127 13.744 278.127 14.056C278.127 14.328 278.207 14.524 278.367 14.644C278.527 14.756 278.735 14.812 278.991 14.812C279.375 14.812 279.699 14.7 279.963 14.476C280.227 14.244 280.359 13.92 280.359 13.504V12.964L279.663 12.988ZM285.633 9.448V11.968H288.129V9.448H289.917V16H288.129V13.3H285.633V16H283.845V9.448H285.633ZM293.399 12.04C293.399 12.176 293.391 12.344 293.375 12.544C293.367 12.744 293.355 12.948 293.339 13.156C293.331 13.364 293.319 13.548 293.303 13.708C293.287 13.868 293.275 13.98 293.267 14.044L296.291 9.448H298.439V16H296.711V13.384C296.711 13.168 296.719 12.932 296.735 12.676C296.751 12.412 296.767 12.168 296.783 11.944C296.807 11.712 296.823 11.536 296.831 11.416L293.819 16H291.671V9.448H293.399V12.04ZM302.887 9.328C303.495 9.328 304.015 9.444 304.447 9.676C304.887 9.908 305.227 10.244 305.467 10.684C305.707 11.124 305.827 11.664 305.827 12.304V13.168H301.603C301.619 13.672 301.767 14.068 302.047 14.356C302.335 14.644 302.731 14.788 303.235 14.788C303.659 14.788 304.043 14.748 304.387 14.668C304.731 14.58 305.087 14.448 305.455 14.272V15.652C305.135 15.812 304.795 15.928 304.435 16C304.083 16.08 303.655 16.12 303.151 16.12C302.495 16.12 301.915 16 301.411 15.76C300.907 15.512 300.511 15.14 300.223 14.644C299.935 14.148 299.791 13.524 299.791 12.772C299.791 12.004 299.919 11.368 300.175 10.864C300.439 10.352 300.803 9.968 301.267 9.712C301.731 9.456 302.271 9.328 302.887 9.328ZM302.899 10.6C302.555 10.6 302.267 10.712 302.035 10.936C301.811 11.16 301.679 11.508 301.639 11.98H304.147C304.147 11.716 304.099 11.48 304.003 11.272C303.915 11.064 303.779 10.9 303.595 10.78C303.411 10.66 303.179 10.6 302.899 10.6Z" fill="black" fill-opacity="0.4"/>
<path d="M144.5 0C144.66 0.656817 144.74 0.985225 144.827 1.28639C146.285 6.34345 150.286 10.2665 155.371 11.6239C155.674 11.7048 156.004 11.7782 156.664 11.9251L157 12L156.664 12.0749C156.004 12.2218 155.674 12.2952 155.371 12.3761C150.286 13.7335 146.285 17.6565 144.827 22.7136C144.74 23.0148 144.66 23.3432 144.5 24C144.34 23.3432 144.26 23.0148 144.173 22.7136C142.715 17.6565 138.714 13.7335 133.629 12.3761C133.326 12.2952 132.996 12.2218 132.336 12.0749L132 12L132.336 11.9251C132.996 11.7782 133.326 11.7048 133.629 11.6239C138.714 10.2665 142.715 6.34345 144.173 1.28638C144.26 0.985223 144.34 0.656816 144.5 0Z" fill="black" fill-opacity="0.4"/>
<path opacity="0.4" d="M3.432 6.432C4.552 6.432 5.368 6.652 5.88 7.092C6.392 7.532 6.648 8.152 6.648 8.952C6.648 9.304 6.588 9.644 6.468 9.972C6.356 10.292 6.168 10.58 5.904 10.836C5.64 11.092 5.288 11.296 4.848 11.448C4.408 11.592 3.868 11.664 3.228 11.664H2.244V15H1.164V6.432H3.432ZM3.336 7.356H2.244V10.74H3.108C3.652 10.74 4.104 10.684 4.464 10.572C4.824 10.452 5.092 10.264 5.268 10.008C5.444 9.752 5.532 9.416 5.532 9C5.532 8.448 5.356 8.036 5.004 7.764C4.652 7.492 4.096 7.356 3.336 7.356ZM10.7216 8.46C11.5056 8.46 12.0856 8.632 12.4616 8.976C12.8376 9.32 13.0256 9.868 13.0256 10.62V15H12.2576L12.0536 14.088H12.0056C11.8216 14.32 11.6296 14.516 11.4296 14.676C11.2376 14.828 11.0136 14.94 10.7576 15.012C10.5096 15.084 10.2056 15.12 9.84563 15.12C9.46163 15.12 9.11363 15.052 8.80163 14.916C8.49763 14.78 8.25763 14.572 8.08163 14.292C7.90563 14.004 7.81763 13.644 7.81763 13.212C7.81763 12.572 8.06963 12.08 8.57363 11.736C9.07763 11.384 9.85363 11.192 10.9016 11.16L11.9936 11.124V10.74C11.9936 10.204 11.8776 9.832 11.6456 9.624C11.4136 9.416 11.0856 9.312 10.6616 9.312C10.3256 9.312 10.0056 9.364 9.70163 9.468C9.39763 9.564 9.11363 9.676 8.84962 9.804L8.52563 9.012C8.80563 8.86 9.13763 8.732 9.52163 8.628C9.90563 8.516 10.3056 8.46 10.7216 8.46ZM11.0336 11.892C10.2336 11.924 9.67763 12.052 9.36563 12.276C9.06163 12.5 8.90963 12.816 8.90963 13.224C8.90963 13.584 9.01763 13.848 9.23363 14.016C9.45763 14.184 9.74163 14.268 10.0856 14.268C10.6296 14.268 11.0816 14.12 11.4416 13.824C11.8016 13.52 11.9816 13.056 11.9816 12.432V11.856L11.0336 11.892ZM14.6762 11.136C14.6762 10.2 14.7682 9.404 14.9522 8.748C15.1442 8.084 15.4362 7.556 15.8282 7.164C16.2282 6.764 16.7402 6.496 17.3642 6.36C17.8842 6.248 18.3922 6.148 18.8882 6.06C19.3842 5.972 19.8482 5.892 20.2802 5.82L20.4602 6.744C20.2522 6.776 20.0202 6.816 19.7642 6.864C19.5082 6.904 19.2482 6.948 18.9842 6.996C18.7202 7.036 18.4642 7.08 18.2162 7.128C17.9762 7.168 17.7642 7.208 17.5802 7.248C17.3162 7.304 17.0802 7.4 16.8722 7.536C16.6642 7.664 16.4842 7.84 16.3322 8.064C16.1882 8.288 16.0722 8.564 15.9842 8.892C15.8962 9.22 15.8442 9.608 15.8282 10.056H15.9002C16.0122 9.904 16.1642 9.748 16.3562 9.588C16.5562 9.428 16.7922 9.292 17.0642 9.18C17.3442 9.068 17.6602 9.012 18.0122 9.012C18.5722 9.012 19.0362 9.136 19.4042 9.384C19.7802 9.624 20.0602 9.96 20.2442 10.392C20.4362 10.824 20.5322 11.328 20.5322 11.904C20.5322 12.616 20.4082 13.212 20.1602 13.692C19.9122 14.172 19.5682 14.532 19.1282 14.772C18.6882 15.004 18.1762 15.12 17.5922 15.12C17.1522 15.12 16.7522 15.036 16.3922 14.868C16.0322 14.692 15.7242 14.436 15.4682 14.1C15.2122 13.764 15.0162 13.348 14.8802 12.852C14.7442 12.356 14.6762 11.784 14.6762 11.136ZM17.6762 14.244C18.0282 14.244 18.3322 14.172 18.5882 14.028C18.8522 13.884 19.0562 13.648 19.2002 13.32C19.3442 12.992 19.4162 12.556 19.4162 12.012C19.4162 11.356 19.2922 10.84 19.0442 10.464C18.8042 10.08 18.4042 9.888 17.8442 9.888C17.4922 9.888 17.1722 9.968 16.8842 10.128C16.5962 10.28 16.3562 10.456 16.1642 10.656C15.9722 10.856 15.8362 11.024 15.7562 11.16C15.7562 11.552 15.7842 11.932 15.8402 12.3C15.8962 12.668 15.9922 13 16.1282 13.296C16.2722 13.584 16.4682 13.816 16.7162 13.992C16.9722 14.16 17.2922 14.244 17.6762 14.244ZM27.7878 11.772C27.7878 12.308 27.7158 12.784 27.5718 13.2C27.4358 13.608 27.2358 13.956 26.9718 14.244C26.7158 14.532 26.3998 14.752 26.0238 14.904C25.6558 15.048 25.2438 15.12 24.7878 15.12C24.3638 15.12 23.9718 15.048 23.6118 14.904C23.2518 14.752 22.9398 14.532 22.6758 14.244C22.4118 13.956 22.2038 13.608 22.0518 13.2C21.9078 12.784 21.8358 12.308 21.8358 11.772C21.8358 11.06 21.9558 10.46 22.1958 9.972C22.4358 9.476 22.7798 9.1 23.2278 8.844C23.6758 8.58 24.2078 8.448 24.8238 8.448C25.4078 8.448 25.9198 8.58 26.3598 8.844C26.8078 9.1 27.1558 9.476 27.4038 9.972C27.6598 10.46 27.7878 11.06 27.7878 11.772ZM22.9278 11.772C22.9278 12.276 22.9918 12.716 23.1198 13.092C23.2558 13.46 23.4638 13.744 23.7438 13.944C24.0238 14.144 24.3798 14.244 24.8118 14.244C25.2438 14.244 25.5998 14.144 25.8798 13.944C26.1598 13.744 26.3638 13.46 26.4918 13.092C26.6278 12.716 26.6958 12.276 26.6958 11.772C26.6958 11.26 26.6278 10.824 26.4918 10.464C26.3558 10.104 26.1478 9.828 25.8678 9.636C25.5958 9.436 25.2398 9.336 24.7998 9.336C24.1438 9.336 23.6678 9.552 23.3718 9.984C23.0758 10.416 22.9278 11.012 22.9278 11.772ZM33.7842 9.456H31.6842V15H30.6402V9.456H28.5642V8.568H33.7842V9.456ZM37.4873 8.46C38.2713 8.46 38.8513 8.632 39.2273 8.976C39.6033 9.32 39.7913 9.868 39.7913 10.62V15H39.0233L38.8193 14.088H38.7713C38.5873 14.32 38.3953 14.516 38.1953 14.676C38.0033 14.828 37.7793 14.94 37.5233 15.012C37.2753 15.084 36.9713 15.12 36.6113 15.12C36.2273 15.12 35.8793 15.052 35.5673 14.916C35.2633 14.78 35.0233 14.572 34.8473 14.292C34.6713 14.004 34.5833 13.644 34.5833 13.212C34.5833 12.572 34.8353 12.08 35.3393 11.736C35.8433 11.384 36.6193 11.192 37.6673 11.16L38.7593 11.124V10.74C38.7593 10.204 38.6433 9.832 38.4113 9.624C38.1793 9.416 37.8513 9.312 37.4273 9.312C37.0913 9.312 36.7713 9.364 36.4673 9.468C36.1633 9.564 35.8793 9.676 35.6152 9.804L35.2913 9.012C35.5713 8.86 35.9033 8.732 36.2873 8.628C36.6713 8.516 37.0713 8.46 37.4873 8.46ZM37.7993 11.892C36.9993 11.924 36.4433 12.052 36.1313 12.276C35.8273 12.5 35.6753 12.816 35.6753 13.224C35.6753 13.584 35.7833 13.848 35.9993 14.016C36.2233 14.184 36.5073 14.268 36.8513 14.268C37.3953 14.268 37.8473 14.12 38.2073 13.824C38.5673 13.52 38.7473 13.056 38.7473 12.432V11.856L37.7993 11.892ZM44.2618 8.448C44.8138 8.448 45.2858 8.568 45.6778 8.808C46.0778 9.048 46.3818 9.388 46.5898 9.828C46.8058 10.26 46.9138 10.768 46.9138 11.352V11.988H42.5098C42.5258 12.716 42.7098 13.272 43.0618 13.656C43.4218 14.032 43.9218 14.22 44.5618 14.22C44.9698 14.22 45.3298 14.184 45.6418 14.112C45.9618 14.032 46.2898 13.92 46.6258 13.776V14.7C46.2978 14.844 45.9738 14.948 45.6538 15.012C45.3338 15.084 44.9538 15.12 44.5138 15.12C43.9058 15.12 43.3658 14.996 42.8938 14.748C42.4298 14.5 42.0658 14.132 41.8018 13.644C41.5458 13.148 41.4178 12.544 41.4178 11.832C41.4178 11.128 41.5338 10.524 41.7658 10.02C42.0058 9.516 42.3378 9.128 42.7618 8.856C43.1938 8.584 43.6938 8.448 44.2618 8.448ZM44.2498 9.312C43.7458 9.312 43.3458 9.476 43.0498 9.804C42.7618 10.124 42.5898 10.572 42.5338 11.148H45.8098C45.8098 10.78 45.7538 10.46 45.6418 10.188C45.5298 9.916 45.3578 9.704 45.1258 9.552C44.9018 9.392 44.6098 9.312 44.2498 9.312ZM52.9913 9.456H50.8913V15H49.8473V9.456H47.7713V8.568H52.9913V9.456ZM59.9555 15.12C59.3875 15.12 58.8795 15.004 58.4315 14.772C57.9915 14.54 57.6435 14.18 57.3875 13.692C57.1395 13.204 57.0155 12.58 57.0155 11.82C57.0155 11.028 57.1475 10.384 57.4115 9.888C57.6755 9.392 58.0315 9.028 58.4795 8.796C58.9355 8.564 59.4515 8.448 60.0275 8.448C60.3555 8.448 60.6715 8.484 60.9755 8.556C61.2795 8.62 61.5275 8.7 61.7195 8.796L61.3955 9.672C61.2035 9.6 60.9795 9.532 60.7235 9.468C60.4675 9.404 60.2275 9.372 60.0035 9.372C59.5715 9.372 59.2155 9.464 58.9355 9.648C58.6555 9.832 58.4475 10.104 58.3115 10.464C58.1755 10.824 58.1075 11.272 58.1075 11.808C58.1075 12.32 58.1755 12.756 58.3115 13.116C58.4475 13.476 58.6515 13.748 58.9235 13.932C59.1955 14.116 59.5355 14.208 59.9435 14.208C60.2955 14.208 60.6035 14.172 60.8675 14.1C61.1395 14.028 61.3875 13.94 61.6115 13.836V14.772C61.3955 14.884 61.1555 14.968 60.8915 15.024C60.6355 15.088 60.3235 15.12 59.9555 15.12ZM71.6943 8.568V15H70.6383V9.468H67.3143V15H66.2583V8.568H71.6943ZM79.3386 11.772C79.3386 12.308 79.2666 12.784 79.1226 13.2C78.9866 13.608 78.7866 13.956 78.5226 14.244C78.2666 14.532 77.9506 14.752 77.5746 14.904C77.2066 15.048 76.7946 15.12 76.3386 15.12C75.9146 15.12 75.5226 15.048 75.1626 14.904C74.8026 14.752 74.4906 14.532 74.2266 14.244C73.9626 13.956 73.7546 13.608 73.6026 13.2C73.4586 12.784 73.3866 12.308 73.3866 11.772C73.3866 11.06 73.5066 10.46 73.7466 9.972C73.9866 9.476 74.3306 9.1 74.7786 8.844C75.2266 8.58 75.7586 8.448 76.3746 8.448C76.9586 8.448 77.4706 8.58 77.9106 8.844C78.3586 9.1 78.7066 9.476 78.9546 9.972C79.2106 10.46 79.3386 11.06 79.3386 11.772ZM74.4786 11.772C74.4786 12.276 74.5426 12.716 74.6706 13.092C74.8066 13.46 75.0146 13.744 75.2946 13.944C75.5746 14.144 75.9306 14.244 76.3626 14.244C76.7946 14.244 77.1506 14.144 77.4306 13.944C77.7106 13.744 77.9146 13.46 78.0426 13.092C78.1786 12.716 78.2466 12.276 78.2466 11.772C78.2466 11.26 78.1786 10.824 78.0426 10.464C77.9066 10.104 77.6986 9.828 77.4186 9.636C77.1466 9.436 76.7906 9.336 76.3506 9.336C75.6946 9.336 75.2186 9.552 74.9226 9.984C74.6266 10.416 74.4786 11.012 74.4786 11.772ZM87.9122 8.568V15H86.9642V10.896C86.9642 10.728 86.9682 10.552 86.9762 10.368C86.9922 10.184 87.0082 10.004 87.0242 9.828H86.9882L84.8882 15H84.0002L81.9602 9.828H81.9242C81.9402 10.004 81.9482 10.184 81.9482 10.368C81.9562 10.552 81.9602 10.74 81.9602 10.932V15H81.0122V8.568H82.4162L84.4442 13.74L86.5082 8.568H87.9122ZM95.5573 11.772C95.5573 12.308 95.4853 12.784 95.3413 13.2C95.2053 13.608 95.0053 13.956 94.7413 14.244C94.4853 14.532 94.1693 14.752 93.7933 14.904C93.4253 15.048 93.0133 15.12 92.5573 15.12C92.1333 15.12 91.7413 15.048 91.3813 14.904C91.0213 14.752 90.7093 14.532 90.4453 14.244C90.1813 13.956 89.9733 13.608 89.8213 13.2C89.6773 12.784 89.6053 12.308 89.6053 11.772C89.6053 11.06 89.7253 10.46 89.9653 9.972C90.2053 9.476 90.5493 9.1 90.9973 8.844C91.4453 8.58 91.9773 8.448 92.5933 8.448C93.1773 8.448 93.6893 8.58 94.1293 8.844C94.5773 9.1 94.9253 9.476 95.1733 9.972C95.4293 10.46 95.5573 11.06 95.5573 11.772ZM90.6973 11.772C90.6973 12.276 90.7613 12.716 90.8893 13.092C91.0253 13.46 91.2333 13.744 91.5133 13.944C91.7933 14.144 92.1493 14.244 92.5813 14.244C93.0133 14.244 93.3693 14.144 93.6493 13.944C93.9293 13.744 94.1333 13.46 94.2613 13.092C94.3973 12.716 94.4653 12.276 94.4653 11.772C94.4653 11.26 94.3973 10.824 94.2613 10.464C94.1253 10.104 93.9173 9.828 93.6373 9.636C93.3653 9.436 93.0093 9.336 92.5693 9.336C91.9133 9.336 91.4373 9.552 91.1413 9.984C90.8453 10.416 90.6973 11.012 90.6973 11.772ZM105.943 8.568V14.124H106.879V17.22H105.823V15H97.2309V8.568H98.2869V14.112H101.059V8.568H102.115V14.112H104.899V8.568H105.943ZM111.07 11.208C111.63 11.208 112.094 11.276 112.462 11.412C112.83 11.548 113.106 11.752 113.29 12.024C113.482 12.288 113.578 12.624 113.578 13.032C113.578 13.432 113.486 13.78 113.302 14.076C113.126 14.372 112.85 14.6 112.474 14.76C112.098 14.92 111.614 15 111.022 15H108.106V8.568H109.162V11.208H111.07ZM112.522 13.092C112.522 12.7 112.382 12.436 112.102 12.3C111.83 12.156 111.446 12.084 110.95 12.084H109.162V14.148H110.974C111.422 14.148 111.79 14.068 112.078 13.908C112.374 13.748 112.522 13.476 112.522 13.092ZM123.583 11.772C123.583 12.484 123.467 13.092 123.235 13.596C123.003 14.092 122.675 14.472 122.251 14.736C121.827 14.992 121.323 15.12 120.739 15.12C120.195 15.12 119.719 15.008 119.311 14.784C118.903 14.552 118.579 14.216 118.339 13.776C118.099 13.328 117.959 12.78 117.919 12.132H116.287V15H115.231V8.568H116.287V11.244H117.931C117.987 10.636 118.135 10.128 118.375 9.72C118.623 9.304 118.947 8.988 119.347 8.772C119.755 8.556 120.227 8.448 120.763 8.448C121.315 8.448 121.803 8.58 122.227 8.844C122.651 9.1 122.983 9.476 123.223 9.972C123.463 10.46 123.583 11.06 123.583 11.772ZM118.999 11.772C118.999 12.308 119.059 12.76 119.179 13.128C119.307 13.496 119.499 13.776 119.755 13.968C120.011 14.152 120.343 14.244 120.751 14.244C121.159 14.244 121.491 14.152 121.747 13.968C122.003 13.776 122.191 13.496 122.311 13.128C122.431 12.76 122.491 12.308 122.491 11.772C122.491 11.236 122.431 10.788 122.311 10.428C122.191 10.068 122.003 9.796 121.747 9.612C121.491 9.428 121.159 9.336 120.751 9.336C120.343 9.336 120.011 9.428 119.755 9.612C119.499 9.796 119.307 10.068 119.179 10.428C119.059 10.788 118.999 11.236 118.999 11.772Z" fill="black"/>
</svg>
