<svg width="10" height="16" viewBox="0 0 10 16" fill="none" xmlns="http://www.w3.org/2000/svg">
<path d="M0.384767 8.00442C0.384767 7.85385 0.41197 7.71485 0.466375 7.58745C0.526825 7.46004 0.617501 7.33842 0.738402 7.22259L7.80203 0.603127C8.00756 0.406222 8.2554 0.30777 8.54557 0.30777C8.74505 0.30777 8.92338 0.354101 9.08055 0.446762C9.24377 0.533631 9.37374 0.655248 9.47046 0.811614C9.56718 0.962188 9.61554 1.13014 9.61554 1.31546C9.61554 1.59344 9.5037 1.83957 9.28004 2.05385L2.91461 8.00442L9.28004 13.955C9.5037 14.1693 9.61554 14.4125 9.61553 14.6847C9.61553 14.8758 9.56718 15.0467 9.47045 15.1972C9.37373 15.3478 9.24376 15.4665 9.08055 15.5534C8.92338 15.6461 8.74505 15.6924 8.54556 15.6924C8.2554 15.6924 8.00756 15.5968 7.80202 15.4057L0.738401 8.78625C0.617501 8.67042 0.526825 8.5488 0.466375 8.42139C0.41197 8.29398 0.384767 8.15499 0.384767 8.00442Z" fill="#9493A2"/>
</svg>
