<svg width="10" height="16" viewBox="0 0 10 16" fill="none" xmlns="http://www.w3.org/2000/svg">
<path d="M9.61523 7.99558C9.61523 8.14615 9.58803 8.28515 9.53363 8.41255C9.47318 8.53996 9.3825 8.66158 9.2616 8.77741L2.19798 15.3969C1.99244 15.5938 1.7446 15.6922 1.45444 15.6922C1.25495 15.6922 1.07662 15.6459 0.919451 15.5532C0.756235 15.4664 0.626266 15.3448 0.529546 15.1884C0.432825 15.0378 0.384465 14.8699 0.384465 14.6845C0.384465 14.4066 0.496298 14.1604 0.719965 13.9462L7.08539 7.99558L0.719965 2.04501C0.496298 1.83073 0.384465 1.5875 0.384465 1.31531C0.384465 1.12419 0.432825 0.953348 0.529546 0.802774C0.626266 0.6522 0.756235 0.533478 0.919451 0.446609C1.07662 0.353948 1.25495 0.307617 1.45444 0.307617C1.7446 0.307617 1.99244 0.403174 2.19798 0.594287L9.2616 7.21375C9.3825 7.32958 9.47318 7.4512 9.53363 7.57861C9.58803 7.70602 9.61523 7.84501 9.61523 7.99558Z" fill="black"/>
</svg>
