<svg width="26" height="26" viewBox="0 0 26 26" fill="none" xmlns="http://www.w3.org/2000/svg">
<path fill-rule="evenodd" clip-rule="evenodd" d="M14.0836 3.25008C14.0836 2.65177 13.5986 2.16675 13.0003 2.16675C12.402 2.16675 11.9169 2.65177 11.9169 3.25008V4.06258H11.3131C8.90258 4.06258 6.90752 5.93676 6.75705 8.34256L6.51763 12.1705C6.42635 13.6299 5.93637 15.0364 5.10105 16.2366C4.34631 17.3211 5.01822 18.8189 6.33006 18.9763L10.0211 19.4192V20.5834C10.0211 22.2288 11.3549 23.5626 13.0003 23.5626C14.6456 23.5626 15.9794 22.2288 15.9794 20.5834V19.4192L19.6705 18.9763C20.9823 18.8189 21.6542 17.3211 20.8995 16.2366C20.0642 15.0364 19.5742 13.6299 19.4829 12.1705L19.2435 8.34255C19.093 5.93676 17.098 4.06258 14.6875 4.06258H14.0836V3.25008ZM11.6461 20.5834C11.6461 21.3313 12.2524 21.9376 13.0003 21.9376C13.7482 21.9376 14.3544 21.3313 14.3544 20.5834V19.7709H11.6461V20.5834Z" fill="#241E20"/>
</svg>
