<svg width="24" height="24" viewBox="0 0 24 24" fill="none" xmlns="http://www.w3.org/2000/svg">
<path d="M9 9C9 7.3 10.3 6 12 6C13.7 6 15 7.3 15 9C15 10.7 13.7 12 12 12C10.3 12 9 10.7 9 9ZM12 14C7.4 14 6 17.3 6 17.3V19H18V17.3C18 17.3 16.6 14 12 14Z" fill="#241E20"/>
<path d="M18.5 11C19.8807 11 21 9.88071 21 8.5C21 7.11929 19.8807 6 18.5 6C17.1193 6 16 7.11929 16 8.5C16 9.88071 17.1193 11 18.5 11Z" fill="#241E20"/>
<path d="M18.5002 13C17.3002 13 16.4002 13.3 15.7002 13.8C18.0002 14.9 18.9002 16.8 18.9002 17V17.1H23.0002V15.8C23.0002 15.7 21.9002 13 18.5002 13Z" fill="#241E20"/>
</svg>
