<svg width="24" height="24" viewBox="0 0 24 24" fill="none" xmlns="http://www.w3.org/2000/svg">
<path d="M4.01357 4.4435C3.30617 5.15089 2.9 6.1729 2.9 7.42993V13.43C2.9 14.687 3.30617 15.709 4.01357 16.4164C4.72096 17.1238 5.74297 17.53 7 17.53C7.49284 17.53 7.9 17.9372 7.9 18.43V20.56C7.9 20.5913 7.90874 20.6075 7.91625 20.6175C7.92564 20.63 7.93925 20.6406 7.95718 20.6514C7.96469 20.6559 7.97884 20.6618 7.99583 20.6627C8.01036 20.6635 8.03125 20.6611 8.0584 20.6441L12.5068 17.6852L4.01357 4.4435ZM4.01357 4.4435C4.72096 3.73611 5.74297 3.32993 7 3.32993M4.01357 4.4435L7 3.32993M7 3.32993H17.01C18.267 3.32993 19.289 3.73611 19.9964 4.4435C20.7038 5.15089 21.11 6.1729 21.11 7.42993V13.43C21.11 14.687 20.7038 15.709 19.9964 16.4164C19.289 17.1238 18.267 17.53 17.01 17.53H13.01C12.828 17.53 12.6494 17.5901 12.5069 17.6851L7 3.32993ZM9.05218 22.1555L9.05318 22.1548L13.2754 19.3399H17C18.7544 19.3399 20.2318 18.7502 21.2711 17.711C22.3103 16.6717 22.9 15.1943 22.9 13.4399V7.43994C22.9 5.68558 22.3103 4.20812 21.2711 3.16888C20.2318 2.12963 18.7544 1.53994 17 1.53994H7C5.24564 1.53994 3.76818 2.12963 2.72893 3.16888C1.68969 4.20812 1.1 5.68558 1.1 7.43994V13.4399C1.1 15.0616 1.6053 16.4482 2.5049 17.4703C3.37842 18.4627 4.61596 19.1025 6.1 19.2841V20.5699C6.1 21.2636 6.47902 21.9154 7.09949 22.2423C7.38155 22.394 7.69581 22.4699 8 22.4699C8.36904 22.4699 8.73761 22.3616 9.05218 22.1555Z" fill="#241E20" stroke="#241E20" stroke-width="0.3"/>
<path d="M11.9998 12.1099C11.5898 12.1099 11.2498 11.7699 11.2498 11.3599V11.1499C11.2498 9.9899 12.0998 9.41989 12.4198 9.19989C12.7898 8.94989 12.9098 8.7799 12.9098 8.5199C12.9098 8.0199 12.4998 7.60986 11.9998 7.60986C11.4998 7.60986 11.0898 8.0199 11.0898 8.5199C11.0898 8.9299 10.7498 9.2699 10.3398 9.2699C9.92984 9.2699 9.58984 8.9299 9.58984 8.5199C9.58984 7.1899 10.6698 6.10986 11.9998 6.10986C13.3298 6.10986 14.4098 7.1899 14.4098 8.5199C14.4098 9.6599 13.5698 10.2299 13.2598 10.4399C12.8698 10.6999 12.7498 10.8699 12.7498 11.1499V11.3599C12.7498 11.7799 12.4098 12.1099 11.9998 12.1099Z" fill="#241E20"/>
<path d="M12 14.6001C11.58 14.6001 11.25 14.2601 11.25 13.8501C11.25 13.4401 11.59 13.1001 12 13.1001C12.41 13.1001 12.75 13.4401 12.75 13.8501C12.75 14.2601 12.42 14.6001 12 14.6001Z" fill="#241E20"/>
</svg>
